<?xml version="1.0" standalone="no"?>
<!DOCTYPE svg PUBLIC "-//W3C//DTD SVG 20010904//EN"
 "http://www.w3.org/TR/2001/REC-SVG-20010904/DTD/svg10.dtd">
<svg version="1.0" xmlns="http://www.w3.org/2000/svg"
 width="973.000000pt" height="196.000000pt" viewBox="0 0 973.000000 196.000000"
 preserveAspectRatio="xMidYMid meet">

<g transform="translate(0.000000,196.000000) scale(0.100000,-0.100000)"
fill="#000000" stroke="none">
<path d="M1085 1579 c-44 -11 -115 -37 -157 -58 l-77 -38 -11 27 c-6 15 -25
40 -41 56 -25 24 -33 26 -56 18 -51 -18 -103 -124 -125 -257 -9 -54 -21 -87
-51 -132 -121 -188 -170 -365 -170 -610 0 -139 4 -173 26 -256 14 -53 38 -125
53 -160 15 -35 27 -76 27 -91 0 -23 4 -28 24 -28 37 0 38 25 4 102 -105 234
-120 526 -39 778 30 94 111 245 171 320 109 134 268 240 424 281 287 76 613
-41 800 -286 142 -186 213 -402 213 -645 0 -172 -32 -318 -103 -469 -29 -62
-23 -91 19 -91 21 0 24 4 19 20 -4 13 7 51 29 103 65 152 81 238 80 442 0 164
-3 189 -28 280 -30 109 -82 229 -139 318 -21 32 -37 70 -37 86 0 40 -36 173
-58 218 -11 21 -32 49 -46 62 -22 21 -29 23 -51 13 -14 -6 -37 -29 -52 -51
-16 -22 -32 -40 -37 -41 -5 0 -43 16 -84 35 -157 75 -357 95 -527 54z"/>
<path d="M8360 1512 c-44 -22 -37 -37 17 -36 42 0 88 28 77 45 -9 15 -57 10
-94 -9z"/>
<path d="M8650 1486 c0 -18 60 -46 99 -46 40 0 41 24 1 45 -37 19 -100 20
-100 1z"/>
<path d="M3601 1460 c-95 -14 -220 -61 -295 -110 -94 -62 -168 -141 -260 -275
-207 -301 -314 -491 -340 -606 -14 -57 -14 -72 -1 -127 8 -35 22 -76 29 -91
14 -25 71 -83 93 -92 4 -2 22 -30 38 -61 23 -44 35 -58 53 -58 12 0 22 3 22 6
0 3 -19 44 -42 91 -40 81 -43 93 -46 188 -5 121 16 211 80 345 22 47 59 138
83 202 57 158 115 257 201 342 134 134 276 195 479 203 322 14 564 -126 711
-409 86 -167 118 -379 79 -514 -42 -145 -141 -291 -226 -335 -52 -26 -116 -24
-170 4 -112 60 -122 191 -34 467 60 191 75 302 52 395 -18 73 -39 112 -63 122
-31 12 -33 -13 -6 -67 24 -49 27 -66 27 -155 -1 -73 -7 -119 -23 -170 -11 -38
-35 -115 -52 -170 -41 -129 -51 -267 -26 -343 43 -127 192 -188 312 -127 27
14 51 25 53 25 2 0 1 -25 -3 -55 -6 -53 -5 -55 18 -55 22 0 24 5 34 86 10 75
17 94 55 152 79 122 117 237 117 359 0 336 -224 679 -514 788 -127 48 -295 65
-435 45z m-694 -727 c-84 -179 -102 -246 -102 -380 0 -62 -3 -113 -6 -113 -10
0 -48 94 -55 136 -7 49 7 106 52 204 40 87 154 283 161 276 3 -2 -20 -58 -50
-123z"/>
<path d="M8455 1414 c-154 -23 -286 -69 -412 -145 -164 -100 -256 -125 -389
-107 -64 9 -76 7 -112 -11 -70 -36 -121 -115 -153 -238 -24 -97 -24 -208 0
-305 24 -91 48 -142 147 -299 72 -115 135 -235 147 -279 3 -12 13 -20 27 -20
19 0 21 4 15 33 -13 59 -54 138 -155 302 -128 207 -142 246 -148 399 l-4 119
46 -7 c65 -10 146 15 197 61 48 43 65 74 80 143 9 44 14 50 36 50 46 0 177 51
260 101 193 117 314 153 513 153 148 0 235 -17 360 -71 113 -49 109 -38 47
-134 -191 -293 -280 -571 -234 -729 19 -62 76 -142 123 -171 l31 -19 89 56
c92 58 195 137 276 213 l48 44 -6 71 c-23 309 -83 501 -189 610 -91 94 -310
171 -508 180 -56 2 -115 2 -132 0z"/>
<path d="M3473 1293 c-25 -5 -73 -57 -73 -79 0 -9 -14 -27 -31 -41 -17 -15
-35 -37 -39 -49 -22 -58 41 -123 122 -127 37 -2 43 1 43 18 0 15 -9 21 -37 26
-40 6 -88 34 -88 50 0 44 63 74 133 64 29 -5 47 -3 52 4 10 18 -14 41 -44 42
-14 0 -34 4 -45 8 -17 7 -17 8 -2 24 25 24 63 21 124 -10 40 -20 55 -24 64
-15 34 34 -105 101 -179 85z"/>
<path d="M5294 1223 c-32 -33 -47 -87 -52 -193 -4 -105 -5 -105 -49 -173 -73
-110 -97 -191 -98 -322 0 -128 22 -213 80 -310 23 -38 34 -67 31 -80 -3 -11
-12 -41 -20 -67 l-15 -48 24 0 c21 0 27 9 47 70 21 68 22 72 5 98 -31 47 -86
166 -93 198 -6 29 -4 32 25 39 44 9 42 45 -4 81 -27 21 -35 33 -35 59 l0 33
51 -2 c86 -2 89 43 6 94 l-27 17 32 64 c48 98 187 231 304 291 320 165 722
147 1012 -46 83 -55 178 -153 220 -227 48 -86 48 -94 7 -119 -39 -24 -56 -66
-34 -82 8 -5 33 -7 57 -5 l42 5 0 -35 c0 -26 -8 -41 -35 -64 -43 -38 -44 -57
-5 -72 27 -10 30 -15 24 -41 -10 -47 -41 -113 -78 -169 l-35 -52 22 -73 c19
-62 25 -72 45 -72 21 0 23 3 17 32 -4 18 -13 48 -20 67 -11 33 -9 39 26 96 75
120 106 282 79 417 -13 71 -65 190 -104 241 -23 30 -26 43 -26 113 0 88 -19
180 -44 219 -27 42 -71 34 -122 -21 -24 -25 -46 -55 -49 -66 -4 -10 -10 -18
-13 -16 -166 87 -287 118 -482 125 -209 7 -328 -18 -537 -113 -6 -3 -19 8 -27
25 -25 47 -84 101 -111 101 -13 0 -31 -8 -41 -17z"/>
<path d="M8415 1150 c-119 -26 -180 -152 -125 -260 56 -110 195 -128 286 -36
67 67 70 162 7 236 -42 50 -106 73 -168 60z"/>
<path d="M8146 1117 c-36 -26 4 -84 42 -61 23 15 26 38 7 58 -20 19 -26 20
-49 3z"/>
<path d="M1623 1050 c-88 -18 -145 -69 -194 -175 -57 -121 -59 -273 -7 -411
27 -72 116 -168 167 -179 84 -18 175 24 237 110 124 175 93 503 -59 617 -25
20 -96 52 -101 47 -1 -1 -20 -5 -43 -9z"/>
<path d="M3045 754 c-133 -69 -169 -255 -71 -362 49 -55 135 -68 205 -32 153
77 164 320 19 396 -36 19 -116 18 -153 -2z"/>
<path d="M3576 742 c-9 -16 36 -43 82 -49 46 -6 59 7 32 32 -23 20 -104 32
-114 17z"/>
<path d="M8096 670 c-37 -57 -95 -84 -174 -83 -59 1 -63 -1 -60 -21 3 -18 11
-21 58 -24 30 -2 72 2 93 8 84 25 187 160 123 160 -7 0 -25 -18 -40 -40z"/>
<path d="M907 665 c-52 -51 -37 -215 19 -215 45 0 58 170 16 212 -18 18 -20
18 -35 3z"/>
<path d="M5730 615 c-184 -42 -300 -135 -300 -240 0 -79 47 -90 238 -59 123
20 300 20 422 0 133 -22 195 -21 220 4 52 52 -7 171 -115 234 -109 64 -327 93
-465 61z"/>
<path d="M3587 564 c-14 -14 -7 -53 12 -63 26 -14 54 8 49 40 -2 17 -10 25
-28 27 -14 2 -29 0 -33 -4z"/>
<path d="M1215 497 c-19 -15 -13 -37 11 -37 19 0 21 -207 1 -234 -19 -26 -60
-17 -67 14 -8 33 -44 34 -48 2 -2 -14 7 -33 28 -53 26 -27 35 -30 63 -24 41 8
73 8 114 0 28 -6 37 -3 63 24 21 20 30 39 28 53 -4 32 -40 31 -48 -2 -4 -17
-14 -26 -30 -28 -40 -6 -50 21 -50 135 0 92 2 103 20 113 30 16 24 37 -11 44
-44 9 -53 8 -74 -7z"/>
<path d="M3313 423 c-18 -7 -16 -43 2 -43 11 0 15 -12 15 -47 0 -27 -4 -54 -9
-61 -14 -22 -54 -10 -69 21 -14 29 -36 36 -45 14 -9 -23 21 -75 51 -91 16 -8
32 -24 35 -35 7 -26 48 -45 81 -37 14 3 32 19 41 34 9 15 30 35 46 44 31 18
52 58 43 83 -9 24 -32 18 -46 -12 -15 -31 -42 -41 -63 -23 -20 17 -21 110 -1
110 23 0 27 29 6 40 -19 10 -66 12 -87 3z m32 -220 c6 -17 7 -17 21 1 7 11 17
17 20 13 10 -9 -4 -37 -21 -43 -18 -7 -58 24 -49 37 8 14 21 10 29 -8z"/>
</g>
</svg>
